<?xml version="1.0" encoding="UTF-8"?> <svg xmlns="http://www.w3.org/2000/svg" id="Camada_2" viewBox="0 0 62.75 10.75"><defs><style>.cls-1{fill:#fff;}</style></defs><g id="Layer_2"><path class="cls-1" d="M44.48,6.66c0-.57-.13-1.1-.38-1.61-.25-.51-.6-.96-1.05-1.34.06-.14.09-.28.12-.42.02-.14.03-.29.03-.44.03-.71-.13-1.26-.49-1.66-.36-.39-.75-.68-1.19-.86-.31-.14-.62-.23-.91-.28-.29-.04-.5-.07-.64-.07h-4.06v10.75l3.92-.02c1.28,0,2.36-.4,3.27-1.19.9-.8,1.36-1.76,1.36-2.88h0ZM41.43,8.05c-.44.39-.96.58-1.58.58h-1.53V2.12h1.66c.22,0,.42.07.59.22.17.14.25.32.25.52,0,.08-.03.17-.07.26-.05.1-.1.19-.17.27-.05.07-.12.14-.17.21-.06.07-.13.14-.19.21-.1.1-.2.19-.29.27-.1.08-.17.15-.23.21.07.04.14.08.2.1.07.03.13.07.2.1,0,0,.02,0,.03,0,0,0,.01,0,.03,0,.48.24.92.5,1.32.81.4.3.6.74.6,1.34h0c0,.54-.22,1.01-.65,1.39Z"></path><path class="cls-1" d="M51.47,8.17c2.62-3.45-.18-8.17-5-8.17h-1.21v10.73h2.4V2.28c1.48.46,2.4,1.61,2.4,2.99,0,1.1-.63,2.15-1.71,2.71.8.95,1.56,1.83,2.38,2.75h3.05l-2.31-2.56h0Z"></path><path class="cls-1" d="M60.35,0v2.85c-.8-1.25-2.05-2.24-4.02-2.7h0C55.76,0,55.26.03,53.94,0v10.73h2.38V2.3h0c3.53,1.19,3.22,5.9,3.53,8.45h2.17v-.02h.72V0h-2.4Z"></path><path class="cls-1" d="M.61,4.27c-.38-.2-.61-.56-.61-1.01V1.1h.31v2.15c0,.17.04.33.12.46.16.27.46.44.85.44.19,0,.36-.04.51-.12.29-.15.46-.44.46-.78V1.1h.31v2.17c0,.22-.05.42-.16.6-.21.35-.61.57-1.11.57-.25,0-.47-.05-.66-.15Z"></path><path class="cls-1" d="M3.9,4.37h-.29V1.91h.28v.38h.03c.1-.25.34-.41.68-.41s.56.17.68.44h.02c.11-.27.38-.44.74-.44.47,0,.76.29.76.84v1.65h-.29v-1.65c0-.39-.22-.58-.55-.58-.38,0-.6.26-.6.61v1.62h-.3v-1.67c0-.33-.2-.55-.54-.55-.11,0-.22.03-.31.08-.18.11-.3.31-.3.57v1.57Z"></path><path class="cls-1" d="M8.08,4.34c-.25-.12-.41-.34-.41-.65,0-.24.1-.4.27-.51.17-.11.41-.17.7-.2l.36-.04c.2-.03.3-.07.3-.2v-.06c0-.34-.21-.54-.59-.54s-.59.18-.68.39l-.28-.1c.06-.13.14-.24.24-.32.2-.16.46-.23.72-.23.19,0,.41.05.59.17.18.12.3.33.3.66v1.67h-.29v-.39h-.02c-.03.07-.08.14-.15.21-.14.14-.35.23-.63.23-.15,0-.29-.03-.42-.09ZM8.94,4.07c.23-.13.35-.37.35-.64v-.35c-.09.08-.43.12-.66.15-.14.02-.26.04-.36.08-.2.07-.31.19-.31.39,0,.3.24.47.58.47.16,0,.29-.03.4-.1Z"></path><path class="cls-1" d="M13.96,3.23h-1.87c0,.18.04.34.11.47.14.29.4.46.75.46.12,0,.22-.02.31-.05.18-.07.3-.21.37-.35l.28.09c-.04.1-.1.19-.19.28-.17.17-.44.29-.77.29-.23,0-.44-.05-.61-.16-.35-.22-.54-.61-.54-1.1,0-.25.05-.47.14-.66.19-.38.52-.62.96-.62.27,0,.53.1.74.3s.33.5.33.92v.13ZM12.09,2.98h1.58c-.01-.14-.04-.27-.09-.38-.13-.28-.36-.45-.68-.45-.16,0-.3.04-.42.12-.23.15-.37.42-.38.72Z"></path><path class="cls-1" d="M15.13,4.37h-.29V1.91h.28v.38h.03c.1-.25.34-.41.68-.41s.56.17.68.44h.02c.11-.27.38-.44.74-.44.47,0,.76.29.76.84v1.65h-.29v-1.65c0-.39-.22-.58-.55-.58-.38,0-.6.26-.6.61v1.62h-.3v-1.67c0-.33-.2-.55-.54-.55-.11,0-.22.03-.31.08-.18.11-.3.31-.3.57v1.57Z"></path><path class="cls-1" d="M19.32,5.29h-.29V1.91h.28v.47h.03c.03-.07.08-.15.14-.23.12-.15.32-.27.63-.27.21,0,.39.05.54.16.31.21.49.6.49,1.11,0,.25-.04.47-.13.67-.17.38-.49.61-.91.61-.15,0-.28-.03-.38-.08-.21-.11-.32-.28-.39-.43h-.02v1.38ZM20.51,4.03c.23-.18.35-.5.35-.88,0-.19-.03-.36-.09-.51-.12-.3-.35-.49-.68-.49-.17,0-.3.04-.42.13-.23.17-.35.48-.35.88,0,.2.03.37.09.52.12.31.35.49.68.49.16,0,.31-.05.42-.14Z"></path><path class="cls-1" d="M22.34,4.37h-.29V1.91h.28v.38h.02c.1-.25.37-.41.69-.41h.08s.05,0,.07,0v.29s-.1-.01-.18-.01c-.13,0-.25.03-.35.08-.21.11-.33.3-.33.55v1.58Z"></path><path class="cls-1" d="M25.89,3.23h-1.87c0,.18.04.34.11.47.14.29.4.46.75.46.12,0,.22-.02.31-.05.18-.07.3-.21.37-.35l.28.09c-.04.1-.1.19-.19.28-.17.17-.44.29-.77.29-.23,0-.44-.05-.61-.16-.35-.22-.54-.61-.54-1.1,0-.25.05-.47.14-.66.19-.38.52-.62.96-.62.27,0,.53.1.74.3s.33.5.33.92v.13ZM24.02,2.98h1.58c-.01-.14-.04-.27-.09-.38-.13-.28-.36-.45-.68-.45-.16,0-.3.04-.42.12-.23.15-.37.42-.38.72Z"></path><path class="cls-1" d="M26.62,3.79l.28-.07c.07.29.29.44.63.44.38,0,.64-.19.64-.44,0-.2-.14-.33-.41-.4l-.41-.09c-.44-.1-.64-.33-.64-.65,0-.14.04-.26.11-.36.15-.21.43-.33.76-.33.46,0,.73.22.85.58l-.27.07c-.08-.22-.25-.4-.58-.4s-.58.18-.58.43c0,.21.14.34.46.41l.38.09c.42.1.63.32.63.64,0,.14-.04.26-.12.37-.16.22-.45.35-.82.35-.49,0-.82-.23-.91-.63Z"></path><path class="cls-1" d="M29.63,4.34c-.25-.12-.41-.34-.41-.65,0-.24.1-.4.27-.51.17-.11.41-.17.7-.2l.36-.04c.2-.03.3-.07.3-.2v-.06c0-.34-.21-.54-.59-.54s-.59.18-.68.39l-.28-.1c.06-.13.14-.24.24-.32.2-.16.46-.23.72-.23.19,0,.41.05.59.17.18.12.3.33.3.66v1.67h-.29v-.39h-.02c-.03.07-.08.14-.15.21-.14.14-.35.23-.63.23-.15,0-.29-.03-.42-.09ZM30.49,4.07c.23-.13.35-.37.35-.64v-.35c-.09.08-.43.12-.66.15-.14.02-.26.04-.36.08-.2.07-.31.19-.31.39,0,.3.24.47.58.47.16,0,.29-.03.4-.1Z"></path><path class="cls-1" d="M11.31,8.57c-.31-.21-.49-.61-.49-1.11,0-.25.04-.48.13-.66.17-.38.49-.6.9-.6.16,0,.28.03.38.08.2.11.32.27.39.42h.03v-1.29h.29v3.28h-.28v-.46h-.03c-.03.08-.08.15-.14.23-.13.16-.32.28-.63.28-.21,0-.38-.05-.54-.16ZM12.3,8.34c.23-.17.35-.49.35-.88,0-.2-.03-.37-.09-.52-.12-.3-.35-.48-.68-.48-.17,0-.31.05-.42.13-.23.18-.35.49-.35.87,0,.19.03.36.09.51.12.31.35.5.68.5.16,0,.3-.05.42-.13Z"></path><path class="cls-1" d="M14.36,8.57c-.33-.22-.53-.61-.53-1.11,0-.25.05-.47.14-.66.19-.38.53-.61.97-.61.22,0,.41.05.58.16.33.21.53.61.53,1.11,0,.25-.05.47-.14.66-.19.38-.53.61-.97.61-.22,0-.41-.05-.58-.16ZM15.38,8.33c.24-.18.37-.51.37-.87,0-.18-.03-.35-.09-.51-.13-.31-.37-.51-.72-.51-.17,0-.32.05-.44.14-.24.19-.37.5-.37.87,0,.18.03.35.09.5.13.31.37.51.72.51.18,0,.32-.05.44-.14Z"></path><path class="cls-1" d="M18.22,9.16l.24-.15c.03.06.08.13.14.18.12.12.31.21.6.21.45,0,.75-.21.75-.67v-.55h-.03c-.03.07-.08.15-.14.22-.13.15-.32.26-.63.26-.2,0-.38-.05-.53-.15-.31-.19-.5-.56-.5-1.06,0-.25.04-.47.13-.66.17-.38.49-.6.91-.6.16,0,.28.03.38.08.21.11.32.27.39.42h.03v-.47h.28v2.52c0,.21-.05.38-.13.51-.18.27-.5.39-.9.39-.51,0-.84-.21-.98-.49ZM19.95,7.44c0-.19-.03-.37-.09-.51-.12-.3-.35-.48-.68-.48-.17,0-.31.05-.43.13-.23.18-.35.49-.35.86,0,.19.03.35.09.49.12.29.36.46.69.46.48,0,.77-.37.77-.95Z"></path><path class="cls-1" d="M21.53,8.68h-.29v-2.46h.28v.38h.02c.1-.25.37-.41.69-.41h.08s.05,0,.07,0v.29s-.1-.01-.18-.01c-.13,0-.25.03-.35.08-.21.11-.33.3-.33.55v1.58Z"></path><path class="cls-1" d="M23.54,8.61c-.25-.14-.4-.41-.4-.79v-1.59h.29v1.58c0,.38.26.64.62.63.12,0,.22-.03.33-.08.21-.11.36-.31.36-.61v-1.52h.29v2.46h-.29v-.41h-.02c-.12.25-.38.44-.75.44-.16,0-.3-.03-.42-.1Z"></path><path class="cls-1" d="M26.32,9.6h-.29v-3.38h.28v.47h.03c.03-.07.08-.15.14-.23.12-.15.32-.27.63-.27.21,0,.39.05.54.16.31.21.49.6.49,1.11,0,.25-.04.47-.13.67-.17.38-.49.61-.91.61-.15,0-.28-.03-.38-.08-.21-.11-.32-.28-.39-.43h-.02v1.38ZM27.51,8.33c.23-.18.35-.5.35-.88,0-.19-.03-.36-.09-.51-.12-.3-.35-.49-.68-.49-.17,0-.3.04-.42.13-.23.17-.35.48-.35.88,0,.2.03.37.09.52.12.31.35.49.68.49.16,0,.31-.05.42-.14Z"></path><path class="cls-1" d="M29.45,8.57c-.33-.22-.53-.61-.53-1.11,0-.25.05-.47.14-.66.19-.38.53-.61.97-.61.22,0,.41.05.58.16.33.21.53.61.53,1.11,0,.25-.05.47-.14.66-.19.38-.53.61-.97.61-.22,0-.41-.05-.58-.16ZM30.47,8.33c.24-.18.37-.51.37-.87,0-.18-.03-.35-.09-.51-.13-.31-.37-.51-.72-.51-.17,0-.32.05-.44.14-.24.19-.37.5-.37.87,0,.18.03.35.09.5.13.31.37.51.72.51.18,0,.32-.05.44-.14Z"></path></g></svg> 