<?xml version="1.0" encoding="UTF-8"?> <svg xmlns="http://www.w3.org/2000/svg" id="Camada_2" viewBox="0 0 103.09 28.23"><defs><style>.cls-1{fill:#fff;}.cls-2{fill:#aa925e;}</style></defs><g id="Layer_2"><path class="cls-2" d="M5.58.4C5.81.34,5.77,0,5.53,0,3.76,0,1.73,0,1.73,0,.78,0,0,.78,0,1.74v1.96c0,.18.22.26.34.13C1.67,2.18,3.46.99,5.58.4Z"></path><path class="cls-2" d="M14.26,3.44c-.71-1.25-1.96-2.05-3.36-2.3-.51-.09-1.05-.14-1.6-.14C4.08,1,.35,5.31,0,11.6v.58C0,13.14.78,13.92,1.73,13.92h6.01c4.28,0,7.41-2.79,7.41-6.96,0-1.33-.32-2.52-.89-3.52Z"></path><path class="cls-2" d="M14.16,13.66c-.59.36-1.47.77-2.09,1.07-.28.14-.39.55-.23.86l4.92,9.36c.2.37.65.36.84-.01.59-1.16.93-2.54.93-4.14,0-3.31-1.53-5.83-3.79-7.16-.18-.11-.4-.1-.58.02Z"></path><path class="cls-2" d="M8.92,16.52c-.83-1.3-2.16-1.76-3.68-1.76H1.73C.78,14.76,0,15.54,0,16.5v9.96C0,27.42.78,28.21,1.73,28.21h9.06c1.37,0,2.69-.24,3.87-.71.45-.18.62-.73.36-1.14-1.51-2.43-6.1-9.83-6.1-9.83Z"></path><path class="cls-2" d="M5.58.4C5.81.34,5.77,0,5.53,0,3.76,0,1.73,0,1.73,0,.78,0,0,.78,0,1.74v1.96c0,.18.22.26.34.13C1.67,2.18,3.46.99,5.58.4Z"></path><path class="cls-2" d="M14.26,3.44c-.71-1.25-1.96-2.05-3.36-2.3-.51-.09-1.05-.14-1.6-.14C4.08,1,.35,5.31,0,11.6v.58C0,13.14.78,13.92,1.73,13.92h6.01c4.28,0,7.41-2.79,7.41-6.96,0-1.33-.32-2.52-.89-3.52Z"></path><path class="cls-2" d="M14.16,13.66c-.59.36-1.47.77-2.09,1.07-.28.14-.39.55-.23.86l4.92,9.36c.2.37.65.36.84-.01.59-1.16.93-2.54.93-4.14,0-3.31-1.53-5.83-3.79-7.16-.18-.11-.4-.1-.58.02Z"></path><path class="cls-2" d="M8.92,16.52c-.83-1.3-2.16-1.76-3.68-1.76H1.73C.78,14.76,0,15.54,0,16.5v9.96C0,27.42.78,28.21,1.73,28.21h9.06c1.37,0,2.69-.24,3.87-.71.45-.18.62-.73.36-1.14-1.51-2.43-6.1-9.83-6.1-9.83Z"></path><path class="cls-1" d="M24.46,3.95h7.52c2.59,0,4.81,1.63,4.81,4.33,0,1.92-1.21,3.46-3,4.04,2.53.44,4.46,2.26,4.46,4.94,0,3.19-2.65,5.02-5.67,5.02h-8.12V3.95ZM27.03,12.17h3.77c2.3,0,3.74-1.68,3.74-3.86s-1.44-3.86-3.74-3.86h-3.77c-.32,0-.6.29-.6.61v6.53c0,.32.29.58.6.58ZM27.03,21.75h4.38c2.74,0,4.64-1.89,4.64-4.56s-1.93-4.53-4.64-4.53h-4.38c-.35,0-.6.29-.6.64v7.84c0,.32.29.61.6.61Z"></path><path class="cls-1" d="M45.64,3.92h.58l7.09,18.32h-2.02l-2.16-5.52c-.09-.32-.35-.55-.66-.55h-6.51c-.32,0-.58.23-.69.55l-2.13,5.52h-.52l7.03-18.32ZM42.04,15.68h6.34c.14,0,.23-.12.23-.29,0-.03,0-.12-.03-.15l-3.28-8.45s-.06-.06-.12-.06-.09,0-.09.06l-3.25,8.45s-.03.12-.03.15c0,.17.09.29.23.29Z"></path><path class="cls-1" d="M55.27,3.95h7.23c2.94,0,5.7,2.3,5.7,5.33,0,2.3-1.61,4.49-3.74,5.08-.2.06-.43.11-.66.17-.03,0-.06.03-.06.11v.06l4.13,5.71c1.47,2.04,3.05,4.1,5.16,5.52.96.64,2.01,1.16,3.13,1.45,2.6.68,5.4.04,7.79-1.08.72-.33,1.41-.73,2.06-1.17.33-.22.65-.45.96-.7.07-.06.45-.48.49-.18.01.08-.03.15-.08.21-.25.34-.59.57-.92.82-.47.38-.97.72-1.49,1.04-1.04.62-2.16,1.1-3.33,1.42-.75.21-1.51.35-2.28.42-2.61.24-5.3-.32-7.57-1.64-2.25-1.31-4.01-3.2-5.59-5.27-.17-.22-.34-.45-.5-.67l-3.71-4.86c-.52-.79-1.35-1.07-2.3-1.07h-1.99c-.23,0-.46.22-.46.45v7.22h-1.99V3.95ZM57.71,14.14h3.86c2.68,0,4.64-2.33,4.64-4.85s-1.96-4.86-4.64-4.86h-3.86c-.26,0-.46.22-.46.48v8.78c0,.25.2.45.46.45Z"></path><path class="cls-1" d="M78.72,3.89c5.44,0,8.84,4.24,8.84,9.2s-3.11,9.17-8.55,9.17c-5.79,0-9.13-3.78-9.13-9.17,0-4.96,3.4-9.2,8.84-9.2ZM78.72,21.84c5.07,0,6.54-4.59,6.54-8.74s-1.47-8.77-6.54-8.77-6.57,4.59-6.57,8.77,1.5,8.74,6.57,8.74Z"></path><path class="cls-1" d="M89.52,3.95h.78l11.95,14.71s.06.06.09.06c.09,0,.14-.06.14-.15V3.95h.6v18.31h-.52l-12.24-15.06s-.06-.06-.12-.06c-.09,0-.14.09-.14.15v14.98h-.55V3.95Z"></path><path class="cls-1" d="M25.14,27.99c-.53-.29-.85-.85-.85-1.59,0-.37.07-.7.23-.97.3-.54.86-.85,1.53-.85.4,0,.76.11,1.05.3s.48.49.55.85h-.48c-.06-.25-.2-.43-.4-.56-.2-.13-.45-.19-.71-.19-.24,0-.46.05-.66.16-.39.22-.64.64-.64,1.26,0,.3.06.56.17.77.23.42.64.64,1.12.64.26,0,.51-.06.71-.19.2-.13.35-.31.4-.56h.48c-.07.36-.27.65-.55.85s-.65.3-1.05.3c-.34,0-.64-.07-.91-.22Z"></path><path class="cls-1" d="M28.99,27.99c-.53-.29-.86-.85-.86-1.59,0-.37.08-.7.23-.97.3-.54.86-.85,1.53-.85.34,0,.64.07.91.22.53.29.85.85.85,1.6,0,.37-.07.69-.23.97-.3.54-.85.85-1.53.85-.34,0-.64-.07-.91-.22ZM30.55,27.65c.39-.22.64-.64.64-1.25,0-.3-.06-.56-.17-.78-.23-.42-.64-.64-1.12-.64-.24,0-.46.05-.66.16-.39.22-.64.64-.64,1.26,0,.3.06.56.17.77.23.42.64.64,1.12.64.24,0,.46-.05.66-.16Z"></path><path class="cls-1" d="M32.81,28.16h-.48v-3.54h.47l2.18,2.78h.04v-2.78h.48v3.54h-.48l-2.17-2.78h-.04v2.78Z"></path><path class="cls-1" d="M36.84,28.1c-.42-.16-.66-.46-.69-.85h.5c.01.13.07.24.16.33.18.18.46.26.78.26.18,0,.35-.03.5-.08.29-.11.48-.3.48-.56,0-.12-.04-.21-.11-.29-.15-.15-.4-.23-.68-.3l-.49-.12c-.62-.16-1.01-.45-1.01-.92,0-.2.06-.37.18-.52.24-.29.67-.47,1.18-.47.26,0,.48.04.68.12.4.16.65.46.66.81h-.47c-.05-.35-.41-.55-.89-.55-.17,0-.33.02-.46.08-.26.1-.42.29-.42.51,0,.13.04.23.13.3.17.15.44.23.64.28l.4.1c.21.05.48.13.72.27.24.15.41.37.41.7,0,.19-.06.36-.17.52-.22.31-.66.5-1.27.5-.29,0-.53-.04-.74-.12Z"></path><path class="cls-1" d="M41.2,28.16h-.48v-3.16h-1.26v-.38h2.99v.38h-1.25v3.16Z"></path><path class="cls-1" d="M45.92,28.16h-.56l-.84-1.38s-.07,0-.1,0h-.87v1.38h-.48v-3.54h1.35c.31,0,.57.05.77.14.4.19.59.53.59.95,0,.21-.05.39-.14.55-.12.2-.32.35-.6.44l.9,1.46ZM43.54,25.01v1.39h.86c.21,0,.39-.03.52-.08.26-.11.37-.32.37-.6,0-.14-.03-.27-.09-.37-.12-.21-.37-.33-.81-.33h-.85Z"></path><path class="cls-1" d="M47.17,28.06c-.47-.22-.74-.61-.74-1.1v-2.34h.48v2.31c0,.17.04.33.13.46.17.27.5.43.94.43.22,0,.41-.04.57-.12.32-.15.5-.43.5-.78v-2.31h.48v2.34c0,.24-.06.46-.19.65-.26.38-.73.61-1.36.61-.31,0-.58-.05-.82-.16Z"></path><path class="cls-1" d="M51.87,28.16h-.48v-3.16h-1.26v-.38h2.99v.38h-1.25v3.16Z"></path><path class="cls-1" d="M54.27,27.99c-.53-.29-.86-.85-.86-1.59,0-.37.08-.7.23-.97.3-.54.86-.85,1.53-.85.34,0,.64.07.91.22.53.29.85.85.85,1.6,0,.37-.07.69-.23.97-.3.54-.85.85-1.53.85-.34,0-.64-.07-.91-.22ZM55.83,27.65c.39-.22.64-.64.64-1.25,0-.3-.06-.56-.17-.78-.23-.42-.64-.64-1.12-.64-.24,0-.46.05-.66.16-.39.22-.64.64-.64,1.26,0,.3.06.56.17.77.23.42.64.64,1.12.64.24,0,.46-.05.66-.16Z"></path><path class="cls-1" d="M60.47,28.16h-.56l-.84-1.38s-.07,0-.1,0h-.87v1.38h-.48v-3.54h1.35c.31,0,.57.05.77.14.4.19.59.53.59.95,0,.21-.05.39-.14.55-.12.2-.32.35-.6.44l.9,1.46ZM58.09,25.01v1.39h.86c.21,0,.39-.03.52-.08.26-.11.37-.32.37-.6,0-.14-.03-.27-.09-.37-.12-.21-.37-.33-.81-.33h-.85Z"></path><path class="cls-1" d="M61.14,28.16h-.51l1.47-3.54h.5l1.46,3.54h-.5l-.4-1h-1.61l-.4,1ZM62.33,25.19l-.64,1.6h1.31l-.64-1.6h-.03Z"></path></g></svg> 