<?xml version="1.0" encoding="UTF-8"?> <svg xmlns="http://www.w3.org/2000/svg" width="81" height="88" viewBox="0 0 81 88" fill="none"><path d="M79.6221 86.1782L72.726 77.3283V11.6934C72.726 11.3086 72.4138 10.9965 72.029 10.9965H50.9177V1.39848C50.9177 1.0137 50.6056 0.701599 50.2207 0.701599H22.9912C22.6065 0.701599 22.2943 1.0137 22.2943 1.39848V26.6744H7.61298C7.2282 26.6744 6.9161 26.9865 6.9161 27.3713V77.0804L0.374831 86.1996C0.220928 86.4134 0.203821 86.6913 0.319255 86.9221C0.438967 87.153 0.678374 87.2984 0.939177 87.2984H79.062C79.3271 87.2984 79.5709 87.1486 79.6862 86.9093C79.8017 86.6698 79.7718 86.3876 79.6093 86.1782H79.6221ZM38.2496 27.3718V12.3905H47.5826V78.7948H38.2496V27.3718ZM56.8044 78.7948H52.2726V71.809H56.8044V78.7948ZM57.8475 78.7948V71.2873C57.8475 71.0008 57.6124 70.7657 57.3259 70.7657H51.7508C51.4644 70.7657 51.2293 71.0008 51.2293 71.2873V78.7948H48.6214L48.6256 12.3905H60.4679V78.7948H57.8475ZM61.5115 12.3905H71.3319V78.7948H61.5115V12.3905ZM23.6918 2.09557H49.5269V11.0011H37.5522C37.1674 11.0011 36.8554 11.3131 36.8554 11.6979V26.6792H23.6921L23.6918 2.09557ZM8.31758 28.0676H36.8594V78.799H25.7056V73.1898C25.7056 72.9032 25.4705 72.6681 25.184 72.6681H19.6304C19.3439 72.6681 19.1088 72.9032 19.1088 73.1898V78.799H8.31789L8.31758 28.0676ZM24.6582 78.7946H20.1477V73.707H24.6582V78.7946ZM2.3067 85.9087L6.92836 79.4658V79.4914C6.92836 79.8763 7.24046 80.1883 7.62523 80.1883H72.0376C72.3924 80.1883 72.6745 79.919 72.7173 79.5727L77.6553 85.913L2.3067 85.9087ZM68.4844 17.5891H64.6538C64.3673 17.5891 64.1321 17.8242 64.1321 18.1106V23.147C64.1321 23.4334 64.3673 23.6686 64.6538 23.6686H68.4844C68.7709 23.6686 69.0061 23.4334 69.0061 23.147V18.1106C69.0061 17.8242 68.7709 17.5891 68.4844 17.5891ZM67.9628 22.6297H65.1753V18.6366H67.9628V22.6297ZM44.5387 17.5891H40.7081C40.4216 17.5891 40.1865 17.8242 40.1865 18.1106V23.147C40.1865 23.4334 40.4216 23.6686 40.7081 23.6686H44.5387C44.8253 23.6686 45.0604 23.4334 45.0604 23.147V18.1106C45.0604 17.8242 44.8253 17.5891 44.5387 17.5891ZM44.0172 22.6297H41.2297V18.6366H44.0172V22.6297ZM68.4843 27.666H64.6536C64.3672 27.666 64.132 27.9012 64.132 28.1876V33.2239C64.132 33.5104 64.3672 33.7456 64.6536 33.7456H68.4843C68.7708 33.7456 69.0058 33.5104 69.0058 33.2239V28.1876C69.0058 27.9012 68.7708 27.666 68.4843 27.666ZM67.9627 32.7024H65.1752V28.7093H67.9627V32.7024ZM44.5386 27.666H40.708C40.4215 27.666 40.1864 27.9012 40.1864 28.1876V33.2239C40.1864 33.5104 40.4215 33.7456 40.708 33.7456H44.5386C44.8251 33.7456 45.0603 33.5104 45.0603 33.2239V28.1876C45.0603 27.9012 44.8251 27.666 44.5386 27.666ZM44.0171 32.7024H41.2296V28.7093H44.0171V32.7024ZM68.4842 37.7429H64.6535C64.367 37.7429 64.1319 37.9782 64.1319 38.2646V43.3009C64.1319 43.5874 64.367 43.8226 64.6535 43.8226H68.4842C68.7706 43.8226 69.0057 43.5874 69.0057 43.3009V38.2646C69.0057 37.9782 68.7706 37.7429 68.4842 37.7429ZM67.9626 42.7794H65.1751V38.7863H67.9626V42.7794ZM44.5385 37.7429H40.7078C40.4214 37.7429 40.1862 37.9782 40.1862 38.2646V43.3009C40.1862 43.5874 40.4214 43.8226 40.7078 43.8226H44.5385C44.825 43.8226 45.0602 43.5874 45.0602 43.3009V38.2646C45.0602 37.9782 44.825 37.7429 44.5385 37.7429ZM44.0169 42.7794H41.2294V38.7863H44.0169V42.7794ZM68.484 47.8158H64.6533C64.3669 47.8158 64.1318 48.0509 64.1318 48.3373V53.3737C64.1318 53.6601 64.3669 53.8953 64.6533 53.8953H68.484C68.7705 53.8953 69.0056 53.6601 69.0056 53.3737V48.3373C69.0056 48.0509 68.7705 47.8158 68.484 47.8158ZM67.9625 52.8521H65.1749V48.859H67.9625V52.8521ZM44.5384 47.8158H40.7077C40.4213 47.8158 40.1861 48.0509 40.1861 48.3373V53.3737C40.1861 53.6601 40.4213 53.8953 40.7077 53.8953H44.5384C44.8248 53.8953 45.0599 53.6601 45.0599 53.3737V48.3373C45.0599 48.0509 44.8248 47.8158 44.5384 47.8158ZM44.0168 52.8521H41.2293V48.859H44.0168V52.8521ZM68.4839 57.8928H64.6532C64.3668 57.8928 64.1317 58.1279 64.1317 58.4143V63.4506C64.1317 63.7371 64.3668 63.9723 64.6532 63.9723H68.4839C68.7703 63.9723 69.0055 63.7371 69.0055 63.4506V58.4143C69.0055 58.1279 68.7703 57.8928 68.4839 57.8928ZM67.9624 62.9291H65.1748V58.936H67.9624V62.9291ZM44.5383 57.8928H40.7076C40.4211 57.8928 40.186 58.1279 40.186 58.4143V63.4506C40.186 63.7371 40.4211 63.9723 40.7076 63.9723H44.5383C44.8247 63.9723 45.0598 63.7371 45.0598 63.4506V58.4143C45.0598 58.1279 44.8247 57.8928 44.5383 57.8928ZM44.0167 62.9291H41.2292V58.936H44.0167V62.9291ZM68.4838 67.9655H64.6531C64.3667 67.9655 64.1315 68.2006 64.1315 68.487V73.5234C64.1315 73.8098 64.3667 74.045 64.6531 74.045H68.4838C68.7702 74.045 69.0054 73.8098 69.0054 73.5234V68.487C69.0054 68.2006 68.7702 67.9655 68.4838 67.9655ZM67.9621 73.0018H65.1746V69.0087H67.9621V73.0018ZM44.5381 67.9655H40.7074C40.421 67.9655 40.1859 68.2006 40.1859 68.487V73.5234C40.1859 73.8098 40.421 74.045 40.7074 74.045H44.5381C44.8246 74.045 45.0597 73.8098 45.0597 73.5234V68.487C45.0597 68.2006 44.8246 67.9655 44.5381 67.9655ZM44.0166 73.0018H41.229V69.0087H44.0166V73.0018ZM56.3338 17.5894H52.5032C52.2167 17.5894 51.9815 17.8245 51.9815 18.1109V23.1473C51.9815 23.4337 52.2167 23.6689 52.5032 23.6689H56.3338C56.6203 23.6689 56.8554 23.4337 56.8554 23.1473V18.1109C56.8554 17.8245 56.6203 17.5894 56.3338 17.5894ZM55.8122 22.63H53.0247V18.6369H55.8122V22.63ZM56.3338 27.6664H52.5032C52.2167 27.6664 51.9815 27.9015 51.9815 28.1879V33.2243C51.9815 33.5107 52.2167 33.7459 52.5032 33.7459H56.3338C56.6203 33.7459 56.8554 33.5107 56.8554 33.2243V28.1879C56.8554 27.9015 56.6203 27.6664 56.3338 27.6664ZM55.8122 32.7028H53.0247V28.7097H55.8122V32.7028ZM56.3338 37.7434H52.5032C52.2167 37.7434 51.9815 37.9785 51.9815 38.2649V43.3013C51.9815 43.5877 52.2167 43.8229 52.5032 43.8229H56.3338C56.6203 43.8229 56.8554 43.5877 56.8554 43.3013V38.2649C56.8554 37.9785 56.6203 37.7434 56.3338 37.7434ZM55.8122 42.7797H53.0247V38.7866H55.8122V42.7797ZM56.3338 47.8161H52.5032C52.2167 47.8161 51.9815 48.0512 51.9815 48.3376V53.374C51.9815 53.6604 52.2167 53.8956 52.5032 53.8956H56.3338C56.6203 53.8956 56.8554 53.6604 56.8554 53.374V48.3376C56.8554 48.0512 56.6203 47.8161 56.3338 47.8161ZM55.8122 52.8525H53.0247V48.8593H55.8122V52.8525ZM56.3338 57.8931H52.5032C52.2167 57.8931 51.9815 58.1282 51.9815 58.4146V63.451C51.9815 63.7374 52.2167 63.9726 52.5032 63.9726H56.3338C56.6203 63.9726 56.8554 63.7374 56.8554 63.451V58.4146C56.8554 58.1282 56.6203 57.8931 56.3338 57.8931ZM55.8122 62.9293H53.0247V58.9362H55.8122V62.9293ZM16.6375 32.6605H12.67C12.3836 32.6605 12.1485 32.8956 12.1485 33.182V37.2137C12.1485 37.5001 12.3836 37.7353 12.67 37.7353H16.6375C16.9239 37.7353 17.1591 37.5001 17.1591 37.2137V33.182C17.1591 32.8956 16.9239 32.6605 16.6375 32.6605ZM16.116 36.6878H13.1916V33.6994H16.116V36.6878ZM16.6375 40.7195H12.67C12.3836 40.7195 12.1485 40.9546 12.1485 41.241V45.2726C12.1485 45.5591 12.3836 45.7943 12.67 45.7943H16.6375C16.9239 45.7943 17.1591 45.5591 17.1591 45.2726V41.241C17.1591 40.9546 16.9239 40.7195 16.6375 40.7195ZM16.116 44.7511H13.1916V41.7626H16.116V44.7511ZM16.6375 48.7827H12.67C12.3836 48.7827 12.1485 49.0178 12.1485 49.3043V53.3359C12.1485 53.6223 12.3836 53.8575 12.67 53.8575H16.6375C16.9239 53.8575 17.1591 53.6223 17.1591 53.3359V49.3043C17.1591 49.0178 16.9239 48.7827 16.6375 48.7827ZM16.116 52.8144H13.1916V49.8259H16.116V52.8144ZM16.6375 56.8417H12.67C12.3836 56.8417 12.1485 57.0768 12.1485 57.3633V61.3949C12.1485 61.6813 12.3836 61.9165 12.67 61.9165H16.6375C16.9239 61.9165 17.1591 61.6813 17.1591 61.3949V57.3633C17.1591 57.0768 16.9239 56.8417 16.6375 56.8417ZM16.116 60.8732H13.1916V57.8849H16.116V60.8732ZM16.6375 64.9049H12.67C12.3836 64.9049 12.1485 65.1401 12.1485 65.4265V69.4581C12.1485 69.7446 12.3836 69.9798 12.67 69.9798H16.6375C16.9239 69.9798 17.1591 69.7446 17.1591 69.4581V65.4265C17.1591 65.1401 16.9239 64.9049 16.6375 64.9049ZM16.116 68.9366H13.1916V65.9481H16.116V68.9366ZM20.6051 37.7307H24.5726C24.859 37.7307 25.0941 37.4956 25.0941 37.2092V33.1775C25.0941 32.8911 24.859 32.6559 24.5726 32.6559H20.6051C20.3186 32.6559 20.0835 32.8911 20.0835 33.1775V37.2092C20.0835 37.4956 20.3186 37.7307 20.6051 37.7307ZM21.1266 33.7034H24.051V36.6919H21.1266V33.7034ZM20.6051 45.7942H24.5726C24.859 45.7942 25.0941 45.559 25.0941 45.2725V41.2409C25.0941 40.9545 24.859 40.7193 24.5726 40.7193H20.6051C20.3186 40.7193 20.0835 40.9545 20.0835 41.2409V45.2725C20.0835 45.559 20.3186 45.7942 20.6051 45.7942ZM21.1266 41.7625H24.051V44.7509H21.1266V41.7625ZM20.6051 53.8576H24.5726C24.859 53.8576 25.0941 53.6224 25.0941 53.336V49.3044C25.0941 49.018 24.859 48.7827 24.5726 48.7827H20.6051C20.3186 48.7827 20.0835 49.018 20.0835 49.3044V53.336C20.0835 53.6224 20.3186 53.8576 20.6051 53.8576ZM21.1266 49.826H24.051V52.8145H21.1266V49.826ZM20.6051 61.9166H24.5726C24.859 61.9166 25.0941 61.6815 25.0941 61.3951V57.3635C25.0941 57.077 24.859 56.8418 24.5726 56.8418H20.6051C20.3186 56.8418 20.0835 57.077 20.0835 57.3635V61.3951C20.0835 61.6815 20.3186 61.9166 20.6051 61.9166ZM21.1266 57.8851H24.051V60.8736H21.1266V57.8851ZM20.6051 69.9801H24.5726C24.859 69.9801 25.0941 69.745 25.0941 69.4586V65.4269C25.0941 65.1405 24.859 64.9053 24.5726 64.9053H20.6051C20.3186 64.9053 20.0835 65.1405 20.0835 65.4269V69.4586C20.0835 69.745 20.3186 69.9801 20.6051 69.9801ZM21.1266 65.9485H24.051V68.9371H21.1266V65.9485ZM28.5357 37.7318H32.5032C32.7896 37.7318 33.0248 37.4966 33.0248 37.2102V33.1785C33.0248 32.8921 32.7896 32.6569 32.5032 32.6569H28.5357C28.2493 32.6569 28.0142 32.8921 28.0142 33.1785V37.2102C28.0142 37.4966 28.2493 37.7318 28.5357 37.7318ZM29.0573 33.7044H31.9817V36.6929H29.0573V33.7044ZM28.5357 45.7951H32.5032C32.7896 45.7951 33.0248 45.5599 33.0248 45.2735V41.2419C33.0248 40.9555 32.7896 40.7203 32.5032 40.7203H28.5357C28.2493 40.7203 28.0142 40.9555 28.0142 41.2419V45.2735C28.0142 45.5599 28.2493 45.7951 28.5357 45.7951ZM29.0573 41.7635H31.9817V44.7519H29.0573V41.7635ZM28.5357 53.8586H32.5032C32.7896 53.8586 33.0248 53.6234 33.0248 53.337V49.3054C33.0248 49.0189 32.7896 48.7837 32.5032 48.7837H28.5357C28.2493 48.7837 28.0142 49.0189 28.0142 49.3054V53.337C28.0142 53.6234 28.2493 53.8586 28.5357 53.8586ZM29.0573 49.827H31.9817V52.8155H29.0573V49.827ZM28.5357 61.9176H32.5032C32.7896 61.9176 33.0248 61.6825 33.0248 61.3961V57.3645C33.0248 57.078 32.7896 56.8428 32.5032 56.8428H28.5357C28.2493 56.8428 28.0142 57.078 28.0142 57.3645V61.3961C28.0142 61.6825 28.2493 61.9176 28.5357 61.9176ZM29.0573 57.8861H31.9817V60.8746H29.0573V57.8861ZM28.5357 69.9812H32.5032C32.7896 69.9812 33.0248 69.746 33.0248 69.4596V65.4279C33.0248 65.1415 32.7896 64.9063 32.5032 64.9063H28.5357C28.2493 64.9063 28.0142 65.1415 28.0142 65.4279V69.4596C28.0142 69.746 28.2493 69.9812 28.5357 69.9812ZM29.0573 65.9494H31.9817V68.9379H29.0573V65.9494Z" fill="#515564" stroke="#515564" stroke-width="0.5"></path></svg> 