<?xml version="1.0" encoding="UTF-8"?> <svg xmlns="http://www.w3.org/2000/svg" width="88" height="78" viewBox="0 0 88 78" fill="none"><path fill-rule="evenodd" clip-rule="evenodd" d="M33.6516 26.0663V11.8584C33.6516 11.7628 33.5561 11.6709 33.4642 11.6709H20.8594C20.7639 11.6709 20.672 11.7665 20.672 11.8584V26.0663C20.672 26.1617 20.7676 26.2537 20.8594 26.2537H33.4642C33.5561 26.3492 33.6516 26.2537 33.6516 26.0663ZM47.1971 57.5828H85.3952C85.4908 57.5828 85.5827 57.4873 85.5827 57.3953V57.2079C85.5827 57.1124 85.4871 57.0205 85.3952 57.0205L47.1971 57.0169C47.1016 57.0169 47.0097 57.1123 47.0097 57.2043V57.3917C46.9179 57.4873 47.1053 57.5828 47.1971 57.5828ZM86.336 58.994H86.2405V60.8756H86.336C86.7109 60.8756 87.0894 61.1585 87.0894 61.6289V63.6979C87.0894 64.0728 86.8064 64.4513 86.336 64.4513H46.2563C45.8815 64.4513 45.503 64.1683 45.503 63.6979V61.6289C45.503 61.2541 45.7859 60.9711 46.1608 60.9711C46.2563 60.9711 46.3482 60.8756 46.3482 60.7837V59.2769C46.3482 59.1813 46.2527 59.0895 46.1608 59.0895C45.7859 59.0895 45.503 58.7146 45.503 58.4317V56.3627C45.503 55.9878 45.7859 55.6093 46.2563 55.6093L57.1714 55.6057C57.267 55.6057 57.3589 55.6057 57.3589 55.5101L63.6615 47.1385C63.757 47.043 63.757 46.9511 63.6615 46.8555C62.1547 44.9739 63.1911 42.1516 65.4475 41.4938C65.543 41.4938 65.6349 41.3983 65.6349 41.3064V39.1418C65.6349 39.0463 65.6349 38.9544 65.5393 38.9544L64.3155 38.1092C64.1281 38.0136 64.0325 37.7343 64.0325 37.5432V35.1912C64.0325 34.9082 64.1281 34.7208 64.4074 34.6252L65.6312 33.78C65.7267 33.78 65.7267 33.6844 65.7267 33.5926L65.7341 23.1479C65.7341 23.0523 65.6386 22.9604 65.5466 22.9604H35.4412C35.3457 22.9604 35.2538 23.056 35.2538 23.1479V27.0985C35.2538 27.4733 34.9708 27.8518 34.5004 27.8518H33.0893C32.9938 27.8518 32.9018 27.9474 32.9018 28.0393V75.8325C32.9018 75.928 32.9974 76.0199 33.0893 76.0199H38.6384C39.5792 76.0199 39.5792 77.4311 38.6384 77.4311H15.9634C15.0226 77.4311 15.0226 76.0199 15.9634 76.0199H21.5126C21.6082 76.0199 21.7001 75.9244 21.7001 75.8325V28.0393C21.7001 27.9437 21.6045 27.8518 21.5126 27.8518H20.1014C19.7266 27.8518 19.3481 27.5689 19.3481 27.0985V23.1479C19.3481 23.0523 19.2525 22.9604 19.1606 22.9604H14.6441C14.5486 22.9604 14.4566 23.056 14.4566 23.1479V24.1843C14.4566 24.5591 14.1737 24.9377 13.7033 24.9377H1.66395C1.2891 24.9377 0.910583 24.6547 0.910583 24.1843V13.8356C0.910583 13.4607 1.19356 13.0822 1.66395 13.0822H7.21313C7.30868 13.0822 7.30868 13.0822 7.40055 12.9866L21.7034 0.756302C21.8909 0.660756 21.9864 0.568878 22.1738 0.568878H31.9562C32.0517 0.568878 32.1437 0.568878 32.2392 0.664425L66.1077 15.1508H66.2033H72.4141C72.7889 15.1508 73.0719 15.4337 73.0719 15.9041V22.3022C73.0719 22.6771 72.7889 22.9601 72.3185 22.9601H67.1441C67.0486 22.9601 66.9567 23.0556 66.9567 23.1475V33.5922C66.9567 33.6877 66.9567 33.7796 67.0523 33.7796L68.2761 34.6248C68.4635 34.7204 68.5591 34.9997 68.5591 35.1908V37.5428C68.5591 37.8258 68.4635 38.0132 68.1841 38.1088L67.1441 38.954C67.0486 38.954 67.0486 39.0496 67.0486 39.1414V42.0594C67.0486 42.4343 66.7656 42.8128 66.2952 42.8128C64.884 42.8128 63.9432 44.2239 64.4136 45.4477C64.5091 45.6351 64.6966 45.6351 64.7884 45.5433L65.6338 44.4151C65.9166 44.0402 66.479 44.0402 66.762 44.4151L67.6072 45.5433C67.7027 45.7307 67.982 45.6388 67.982 45.4477C68.0776 45.3521 68.0776 45.1647 68.0776 45.0729C68.1731 44.1321 69.5843 44.3195 69.4887 45.2603C69.3932 45.8262 69.1139 46.3885 68.8309 46.8589C68.7354 46.9544 68.7354 47.0463 68.8309 47.1419L75.0417 55.5135C75.0417 55.609 75.1372 55.609 75.2291 55.609L86.3352 55.6053C86.71 55.6053 87.0885 55.8883 87.0885 56.3587V58.4277C87.0885 58.7107 86.7108 58.994 86.336 58.994ZM59.5234 55.6057H73.0689C73.2564 55.6057 73.3519 55.4182 73.2564 55.2308L67.8947 47.9874C67.7991 47.8919 67.7072 47.8919 67.6117 47.8919C66.7664 48.1748 65.9175 48.1748 65.0723 47.8919C64.9767 47.8919 64.8849 47.8919 64.7893 47.9874L59.3319 55.2308C59.24 55.3227 59.336 55.6057 59.5234 55.6057ZM47.1971 62.9446H85.3952C85.4908 62.9446 85.5827 62.849 85.5827 62.7571V62.5697C85.5827 62.4742 85.4871 62.3823 85.3952 62.3823L47.1971 62.3786C47.1016 62.3786 47.0097 62.4742 47.0097 62.566V62.7534C46.9179 62.849 47.1053 62.9446 47.1971 62.9446ZM84.5494 58.994H48.0457C47.9502 58.994 47.8583 59.0895 47.8583 59.1814V60.6882C47.8583 60.7837 47.9539 60.8756 48.0457 60.8756H84.6407C84.7363 60.8756 84.8282 60.78 84.8282 60.6882V59.1814C84.8282 59.0859 84.7369 58.994 84.5494 58.994ZM24.5259 76.0205H29.7002C29.8877 76.0205 29.9832 75.7375 29.8877 75.6456L27.2528 73.0106C27.1572 72.9151 26.9698 72.9151 26.8779 73.0106L24.2429 75.6456C24.1474 75.7412 24.3385 76.0205 24.5259 76.0205ZM66.5784 46.3855L66.4829 46.198C66.3873 46.1025 66.1999 46.1025 66.108 46.198L66.0125 46.3855C65.9169 46.5729 66.0125 46.7603 66.1999 46.7603H66.4829C66.674 46.6684 66.7659 46.481 66.5784 46.3855ZM21.1371 3.10897C21.3246 3.01343 21.512 3.10897 21.512 3.2964V10.0694C21.512 10.1649 21.4165 10.2568 21.3246 10.2568H19.9134C19.5385 10.2568 19.1601 10.5398 19.1601 11.0102V14.9608C19.1601 15.0562 19.0645 15.1482 18.9726 15.1482H14.4561C14.3605 15.1482 14.2686 15.0526 14.2686 14.9608V13.9244C14.2686 13.5495 13.9857 13.171 13.5153 13.171L10.1306 13.1783C9.94313 13.1783 9.84759 12.8953 9.94313 12.8035L21.1371 3.10897ZM61.5913 14.6817C61.7788 14.7772 61.7788 15.1521 61.4958 15.1521H35.2495C35.1539 15.1521 35.0621 15.0565 35.0621 14.9646V11.014C35.0621 10.6392 34.7791 10.2607 34.3087 10.2607H32.8975C32.8019 10.2607 32.7101 10.1652 32.7101 10.0732V2.64251C32.7101 2.45508 32.8975 2.35954 32.993 2.45508L61.5913 14.6817ZM70.3414 21.0799L69.4006 20.1391C69.3051 20.0435 69.1177 20.0435 69.0258 20.1391L68.085 21.0799C67.8976 21.2673 68.085 21.4547 68.2724 21.4547H70.0584C70.437 21.4547 70.5289 21.2673 70.3414 21.0799ZM68.085 18.8235L66.2034 16.9419C66.1079 16.8463 65.9205 16.8463 65.8286 16.9419L63.947 18.8235C63.8514 18.919 63.8514 19.1064 63.947 19.1983L65.8286 21.0799C65.9242 21.1754 66.1116 21.1754 66.2034 21.0799L68.085 19.1983C68.1769 19.1027 68.1769 18.9153 68.085 18.8235ZM68.1769 16.9419L69.1177 17.8827C69.2133 17.9782 69.4007 17.9782 69.4925 17.8827L70.4333 16.9419C70.6208 16.7544 70.4333 16.567 70.2459 16.567H68.4599C68.1769 16.5633 68.085 16.7507 68.1769 16.9419ZM70.437 19.1983L71.3778 20.1391C71.5652 20.3265 71.7526 20.1391 71.7526 19.9516V18.1656C71.7526 17.9782 71.4697 17.8827 71.3778 17.9782L70.437 18.919C70.3414 18.9153 70.3414 19.1027 70.437 19.1983ZM64.0388 21.0799L63.098 20.1391C63.0024 20.0435 62.815 20.0435 62.7232 20.1391L61.7824 21.0799C61.5949 21.2673 61.7824 21.4547 61.9698 21.4547H63.7558C64.0388 21.4547 64.1307 21.2673 64.0388 21.0799ZM61.7788 18.8235L59.8972 16.9419C59.8016 16.8463 59.6142 16.8463 59.5224 16.9419L57.6408 18.8235C57.5452 18.919 57.5452 19.1064 57.6408 19.1983L59.5224 21.0799C59.6178 21.1754 59.8053 21.1754 59.8972 21.0799L61.7788 19.1983C61.8743 19.1027 61.8743 18.9153 61.7788 18.8235ZM61.8743 16.9419L62.8151 17.8827C62.9106 17.9782 63.098 17.9782 63.1899 17.8827L64.1307 16.9419C64.3181 16.7544 64.1307 16.567 63.9433 16.567H62.1573C61.7788 16.5633 61.6868 16.7507 61.8743 16.9419ZM57.6408 21.0799L56.7 20.1391C56.6044 20.0435 56.417 20.0435 56.3251 20.1391L55.3843 21.0799C55.2888 21.1754 55.2888 21.2673 55.2888 21.3628C55.2888 21.4583 55.3843 21.5503 55.4762 21.5503H57.2622C57.7363 21.4547 57.8282 21.2673 57.6408 21.0799ZM55.3844 18.8235L53.5028 16.9419C53.4072 16.8463 53.2198 16.8463 53.1279 16.9419L51.2463 18.8235C51.1508 18.919 51.1508 19.1064 51.2463 19.1983L53.1279 21.0799C53.2235 21.1754 53.4109 21.1754 53.5028 21.0799L55.3844 19.1983C55.4762 19.1027 55.4762 18.9153 55.3844 18.8235ZM55.4762 16.9419L56.417 17.8827C56.5126 17.9782 56.7 17.9782 56.7919 17.8827L57.7326 16.9419C57.9201 16.7544 57.7327 16.567 57.5452 16.567H55.7592C55.4763 16.5633 55.3844 16.7507 55.4762 16.9419ZM51.3382 21.0799L50.3974 20.1391C50.3019 20.0435 50.1144 20.0435 50.0226 20.1391L49.0818 21.0799C48.9862 21.1754 49.0818 21.4547 49.2692 21.4547H51.0552C51.3382 21.4547 51.4301 21.2673 51.3382 21.0799ZM49.0781 18.8235L47.1965 16.9419C47.1011 16.8463 46.9136 16.8463 46.8217 16.9419L44.9401 18.8235C44.8446 18.919 44.8446 19.1064 44.9401 19.1983L46.8217 21.0799C46.9172 21.1754 47.1047 21.1754 47.1965 21.0799L49.0781 19.1983C49.1737 19.1027 49.1737 18.9153 49.0781 18.8235ZM49.1737 16.9419L50.1145 17.8827C50.21 17.9782 50.3975 17.9782 50.4893 17.8827L51.4301 16.9419C51.6175 16.7544 51.4301 16.567 51.2427 16.567H49.4567C49.0782 16.5633 48.9863 16.7507 49.1737 16.9419ZM44.9401 21.0799L43.9994 20.1391C43.9038 20.0435 43.7164 20.0435 43.6244 20.1391L42.6837 21.0799C42.4963 21.2673 42.6837 21.4547 42.8712 21.4547H44.6572C45.0356 21.4547 45.1276 21.2673 44.9401 21.0799ZM42.6837 18.8235L40.8022 16.9419C40.7066 16.8463 40.5192 16.8463 40.4273 16.9419L38.5457 18.8235C38.4502 18.919 38.4502 19.1064 38.5457 19.1983L40.4273 21.0799C40.5228 21.1754 40.7102 21.1754 40.8022 21.0799L42.6837 19.1983C42.7756 19.1027 42.7756 18.9153 42.6837 18.8235ZM42.7756 16.9419L43.7164 17.8827C43.8119 17.9782 43.9994 17.9782 44.0913 17.8827L45.0321 16.9419C45.2195 16.7544 45.0321 16.567 44.8446 16.567H43.0586C42.7757 16.5633 42.6837 16.7507 42.7756 16.9419ZM38.6376 21.0799L37.6968 20.1391C37.6013 20.0435 37.4138 20.0435 37.322 20.1391L36.3812 21.0799C36.1938 21.2673 36.3812 21.4547 36.5686 21.4547H38.3546C38.6376 21.4547 38.7295 21.2673 38.6376 21.0799ZM36.3775 18.8235L35.4367 17.8827C35.2493 17.6952 35.0619 17.8827 35.0619 18.0701V19.8561C35.0619 20.0435 35.3449 20.1391 35.4367 20.0435L36.3775 19.1027C36.4731 19.1027 36.4731 18.9153 36.3775 18.8235ZM36.4731 16.9419L37.4139 17.8827C37.5094 17.9782 37.6969 17.9782 37.7887 17.8827L38.7295 16.9419C38.9169 16.7544 38.7295 16.567 38.5421 16.567H36.7561C36.3776 16.5633 36.2857 16.7507 36.4731 16.9419ZM17.7532 21.0799L16.8124 20.1391C16.7168 20.0435 16.5294 20.0435 16.4376 20.1391L15.4968 21.0799C15.3093 21.2673 15.4967 21.4547 15.6842 21.4547H17.6577C17.8451 21.4547 17.9406 21.2673 17.7532 21.0799ZM15.5886 18.8235L14.6478 17.8827C14.4604 17.6952 14.273 17.8827 14.273 18.0701V19.8561C14.273 20.0435 14.5559 20.1391 14.6478 20.0435L15.5886 19.1027C15.6804 19.1027 15.6804 18.9153 15.5886 18.8235ZM15.6804 16.9419L16.6212 17.8827C16.7168 17.9782 16.9042 17.9782 16.9961 17.8827L17.9369 16.9419C18.1243 16.7544 17.9369 16.567 17.7495 16.567L15.776 16.5633C15.5885 16.5633 15.493 16.7507 15.6804 16.9419ZM17.845 19.1983L18.7858 20.1391C18.9733 20.3265 19.1607 20.1391 19.1607 19.9516V18.1656C19.1607 17.9782 18.8777 17.8827 18.7858 17.9782L17.845 18.919C17.7532 18.9153 17.7532 19.1027 17.845 19.1983ZM29.8881 9.88592L27.2531 7.25091C27.1576 7.15536 26.9702 7.15536 26.8783 7.25091L24.2433 9.88592C24.0559 10.0733 24.2433 10.2607 24.4308 10.2607H29.6051C29.9837 10.2607 30.0756 9.97774 29.8881 9.88592ZM25.9375 5.93164L23.3026 3.30033C23.1151 3.11291 22.9277 3.30033 22.9277 3.48776V8.66212C22.9277 8.84955 23.2107 8.94509 23.3026 8.84954L25.9375 6.21457C26.0294 6.21457 26.0294 6.02718 25.9375 5.93164ZM24.3389 2.35954L26.9739 4.99451C27.0695 5.09006 27.2569 5.09006 27.3488 4.99451L29.9838 2.35954C30.1712 2.17211 29.9838 1.98469 29.7964 1.98469H24.622C24.339 1.88914 24.1479 2.16843 24.3389 2.35954ZM28.2895 6.21463L30.9245 8.8496C31.112 9.03703 31.2994 8.8496 31.2994 8.66218V3.48781C31.2994 3.30039 31.0164 3.20484 30.9245 3.30039L28.2895 5.93536C28.194 6.02723 28.194 6.21463 28.2895 6.21463ZM30.8289 37.4481L27.2531 33.8723C27.1576 33.7767 26.9702 33.7767 26.8783 33.8723L23.3026 37.4481C23.207 37.5436 23.207 37.731 23.3026 37.8229L26.8783 41.3986C26.9739 41.4942 27.1613 41.4942 27.2531 41.3986L30.8289 37.8229C30.9245 37.731 30.9245 37.5436 30.8289 37.4481ZM25.9375 32.5567L23.3026 30.0173C23.1151 29.8298 22.9277 30.0173 22.9277 30.2047V35.3791C22.9277 35.5665 23.2107 35.6621 23.3026 35.5665L25.9375 32.9315C26.0294 32.8396 26.0294 32.6522 25.9375 32.5567ZM23.49 28.1357L26.9701 31.6159C27.0657 31.7114 27.2531 31.7114 27.345 31.6159L30.8252 28.1357C31.0126 27.9482 30.8252 27.7608 30.6378 27.7608H23.7693C23.49 27.7608 23.3981 28.0401 23.49 28.1357ZM28.2895 32.9353L30.9245 35.5702C31.112 35.7577 31.2994 35.5702 31.2994 35.3827V30.2084C31.2994 30.021 31.0164 29.9255 30.9245 30.021L28.2895 32.6559C28.194 32.6523 28.194 32.8397 28.2895 32.9353ZM23.3026 45.3528L25.9375 42.7178C26.0331 42.6222 26.0331 42.4348 25.9375 42.3429L23.3026 39.7999C23.1151 39.6125 22.9277 39.7999 22.9277 39.9873V45.1616C22.9277 45.3528 23.2071 45.4446 23.3026 45.3528ZM30.9245 39.8L28.2895 42.4349C28.194 42.5304 28.194 42.7178 28.2895 42.8097L30.9245 45.4447C31.112 45.6321 31.2994 45.4447 31.2994 45.2573V39.8955C31.2994 39.7081 31.0164 39.6125 30.9245 39.8ZM26.9702 43.6587L23.3945 47.2345C23.299 47.33 23.299 47.5174 23.3945 47.6093L26.9702 51.1851C27.0658 51.2807 27.2532 51.2807 27.3451 51.1851L30.9209 47.6093C31.0164 47.5137 31.0164 47.3263 30.9209 47.2345L27.2533 43.6587C27.1614 43.5631 27.0658 43.5631 26.9702 43.6587ZM30.829 57.017L27.2532 53.4413C27.1577 53.3457 26.9703 53.3457 26.8784 53.4413L23.3026 57.017C23.2071 57.1125 23.2071 57.2999 23.3026 57.3919L26.8784 60.9676C26.974 61.0632 27.1614 61.0632 27.2532 60.9676L30.829 57.3919C30.9246 57.2045 30.9246 57.1125 30.829 57.017ZM25.9376 52.1257L23.3026 49.4907C23.1152 49.3032 22.9278 49.4907 22.9278 49.6781V54.9481C22.9278 55.1355 23.2108 55.231 23.3026 55.1355L25.9376 52.5005C26.0295 52.4086 26.0295 52.2212 25.9376 52.1257ZM28.2896 52.5005L30.9246 55.1355C31.1121 55.3229 31.2995 55.1355 31.2995 54.9481V49.7737C31.2995 49.5863 31.0165 49.4907 30.9246 49.5863L28.2896 52.1257C28.1941 52.2212 28.1941 52.4086 28.2896 52.5005ZM23.3026 64.8268L25.9376 62.1918C26.0332 62.0962 26.0332 61.9088 25.9376 61.817L23.3026 59.2776C23.1152 59.0901 22.9278 59.2776 22.9278 59.465V64.6394C22.9278 64.8268 23.2072 65.0142 23.3026 64.8268ZM30.9246 59.2776L28.2896 61.9126C28.1941 62.0081 28.1941 62.1956 28.2896 62.2874L30.9246 64.9223C31.1121 65.1098 31.2995 64.9224 31.2995 64.7349V59.5606C31.2995 59.2776 31.0165 59.0865 30.9246 59.2776ZM26.9703 63.2282L23.3946 66.8039C23.2991 66.8995 23.2991 67.0869 23.3946 67.1787L26.9703 70.7545C27.0659 70.8501 27.2533 70.8501 27.3452 70.7545L30.921 67.1787C31.0165 67.0833 31.0165 66.8958 30.921 66.8039L27.3452 63.2282C27.1615 63.1326 27.0659 63.1326 26.9703 63.2282ZM25.9376 71.6953L23.3026 69.0603C23.1152 68.8729 22.9278 69.0603 22.9278 69.2477V74.4221C22.9278 74.6095 23.2108 74.7051 23.3026 74.6095L25.9376 71.9745C26.0295 71.8827 26.0295 71.6953 25.9376 71.6953ZM28.2896 71.9783L30.9246 74.6133C31.1121 74.8007 31.2995 74.6133 31.2995 74.4259V69.2515C31.2995 69.064 31.0165 68.9685 30.9246 69.064L28.2896 71.699C28.1941 71.6953 28.1941 71.8827 28.2896 71.9783ZM66.2045 35.0042L65.5467 35.4746C65.4512 35.4746 65.4512 35.5701 65.4512 35.662V36.9776C65.4512 37.0732 65.4512 37.165 65.5467 37.165L66.2045 37.6354C66.3001 37.731 66.392 37.731 66.4875 37.6354L67.1453 37.165C67.2409 37.165 67.2409 37.0695 67.2409 36.9776V35.662C67.2409 35.5664 67.2409 35.4746 67.1453 35.4746L66.4875 35.0042C66.392 34.9086 66.2964 34.9086 66.2045 35.0042ZM12.5793 14.5899H2.60505C2.5095 14.5899 2.41762 14.6854 2.41762 14.7773V23.2444C2.41762 23.34 2.51317 23.4318 2.60505 23.4318H12.5793C12.6749 23.4318 12.7668 23.3364 12.7668 23.2444V14.7773C12.8586 14.6817 12.7668 14.5899 12.5793 14.5899Z" fill="#515564"></path></svg> 