<?xml version="1.0" encoding="UTF-8"?> <svg xmlns="http://www.w3.org/2000/svg" width="68" height="88" viewBox="0 0 68 88" fill="none"><path d="M46.3387 61.0331C46.9323 61.0331 47.7113 61.0098 48.5985 60.9396C48.6308 60.9426 48.6586 60.9584 48.6916 60.9584C48.7688 60.9584 48.8367 60.9302 48.9092 60.9145C52.1388 60.6241 56.7175 59.6667 59.8819 56.7191C61.9908 54.7542 63.157 52.1912 63.3733 49.0991H66.4057C66.9918 49.0991 67.4671 48.6239 67.4671 48.0378V41.2817C67.4671 40.6956 66.9918 40.2203 66.4057 40.2203H54.2857V33.2685C60.9657 32.7254 66.2378 27.1264 66.2378 20.3088C66.2378 15.4797 63.5682 11.0827 59.3548 8.83192C59.5766 8.17839 59.6886 7.5088 59.6886 6.83092C59.6886 3.26633 56.7889 0.366669 53.2243 0.366669C49.6597 0.366669 46.7601 3.26633 46.7601 6.83092C46.7601 7.5088 46.872 8.17839 47.0939 8.83192C42.8798 11.0827 40.2108 15.4797 40.2108 20.3088C40.2108 27.1264 45.483 32.7254 52.1629 33.2685V40.2203H36.5954V16.3555H38.4026C38.9887 16.3555 39.464 15.8802 39.464 15.2941V9.81557C39.464 9.22943 38.9887 8.75418 38.4026 8.75418H1.59426C1.00811 8.75418 0.532867 9.22943 0.532867 9.81557V15.2941C0.532867 15.8802 1.00811 16.3555 1.59426 16.3555H3.67456V40.2203H2.61316C2.02701 40.2203 1.55177 40.6956 1.55177 41.2817V48.0378C1.55177 48.6239 2.02701 49.0991 2.61316 49.0991H32.9972V49.4408C23.1774 49.8115 15.353 55.2471 15.353 61.8949V81.4379H1.59426C1.00811 81.4379 0.532867 81.9132 0.532867 82.4993V86.5719C0.532867 87.158 1.00811 87.6333 1.59426 87.6333H65.9865C66.5726 87.6333 67.0479 87.158 67.0479 86.5719V82.4993C67.0479 81.9132 66.5726 81.4379 65.9865 81.4379H46.2123V61.0319C46.2565 61.0321 46.2921 61.0331 46.3387 61.0331ZM47.6302 58.8652C47.0761 58.8936 46.5957 58.9036 46.2123 58.9029V51.5006C46.6161 51.4784 47.1012 51.4366 47.6302 51.3657V58.8652ZM46.2123 49.372V49.0991H48.2842C47.578 49.2426 46.8515 49.3297 46.2123 49.372ZM52.6926 58.0981C51.677 58.3678 50.6796 58.5512 49.753 58.6714V50.9243C50.8913 50.5839 51.9766 50.0463 52.6926 49.2198V58.0981ZM57.2512 56.0942C56.49 56.6163 55.667 57.0435 54.8154 57.3907V49.0991H57.2512V56.0942ZM59.374 54.122V49.0991H61.2516C61.0884 51.0584 60.4527 52.7357 59.374 54.122ZM42.3336 20.3088C42.3336 15.971 44.9078 12.0492 48.8922 10.3183C49.1633 10.2006 49.3731 9.97468 49.4711 9.69586C49.569 9.41652 49.5457 9.10919 49.4073 8.84798C49.059 8.19135 48.8828 7.51295 48.8828 6.83092C48.8828 4.43708 50.8305 2.48946 53.2243 2.48946C55.6181 2.48946 57.5658 4.43708 57.5658 6.83092C57.5658 7.51295 57.3891 8.19135 57.0413 8.84746C56.9024 9.10867 56.8791 9.41652 56.977 9.69534C57.0745 9.97468 57.2843 10.2006 57.5559 10.3183C61.5403 12.0492 64.115 15.971 64.115 20.3088C64.115 25.9556 59.7943 30.6102 54.2857 31.1458V25.3273L58.3971 19.5687C58.7376 19.0914 58.6272 18.4285 58.1499 18.088C57.672 17.747 57.0092 17.8574 56.6691 18.3352L53.2243 23.1602L49.7794 18.3352C49.4384 17.8585 48.7761 17.7486 48.2988 18.088C47.8214 18.4285 47.7111 19.0914 48.0516 19.5687L52.1629 25.3273V31.1458C46.6543 30.6102 42.3336 25.9556 42.3336 20.3088ZM2.65566 14.2327V10.877H37.3412V14.2327H2.65566ZM23.7234 31.4721C24.3095 31.4721 24.7848 30.9968 24.7848 30.4107V21.8412C24.7848 21.2551 24.3095 20.7798 23.7234 20.7798H5.79735V16.3555H34.4726V40.2203H5.79735V31.4721H23.7234ZM5.79735 29.3493V22.9026H22.662V29.3493H5.79735ZM30.8997 51.7215C31.5841 51.6386 32.2859 51.5897 32.9972 51.5613V58.913C32.2867 58.9399 31.5871 58.9908 30.8997 59.0694V51.7215ZM26.7656 52.5984C27.4145 52.3986 28.084 52.2223 28.7769 52.0761V59.3922C28.0907 59.5275 27.4168 59.6815 26.7656 59.8663V52.5984ZM21.8313 54.9163C22.6748 54.3391 23.6121 53.8177 24.6428 53.3712V60.5926C23.6429 60.9838 22.702 61.4325 21.8313 61.9365V54.9163ZM17.4758 61.8949C17.4758 60.0105 18.297 58.2472 19.7085 56.7228V63.3691C18.8474 64.0566 18.1021 64.8089 17.4758 65.6098V61.8949ZM17.4758 71.3672C17.4758 65.8747 24.3486 61.3784 32.9972 61.0336V81.4379H17.4758V71.3672ZM64.9251 83.5607V85.5105H2.65566V83.5607H64.9251ZM35.1199 81.4379V49.0991H44.0895V81.4379H35.1199ZM3.67456 46.9764V42.343H65.3443V46.9764H3.67456Z" fill="#515564"></path></svg> 