<?xml version="1.0" encoding="UTF-8"?> <svg xmlns="http://www.w3.org/2000/svg" width="86" height="88" viewBox="0 0 86 88" fill="none"><path d="M85.1313 57.2C86.1904 55.0795 85.7668 52.4289 83.9663 50.8386L81.7422 48.8241C81.3185 48.4 81.1067 48.0819 81.0008 47.5518L80.3653 44.5831C79.8358 42.2506 77.8234 40.5542 75.3875 40.4482L72.422 40.2361C71.8924 40.2361 71.4688 40.0241 71.0451 39.706L68.6092 37.9036C66.7028 36.4193 64.055 36.4193 62.1486 37.9036L59.7126 39.706C59.289 40.0241 58.8653 40.2361 58.3358 40.2361L55.3703 40.4482C53.1461 40.5542 51.2397 42.0386 50.6042 44.053C47.2151 41.5084 43.4023 39.6 39.2717 38.6458C43.6141 36.3133 46.8973 32.1783 47.8505 27.0892C49.8629 27.0892 51.4515 25.4988 51.4515 23.4843C51.4515 21.4699 50.3924 20.5157 48.9097 19.9855C48.9097 12.7759 44.4614 6.41445 37.789 3.76385C37.6831 3.23373 37.4712 2.59759 37.0476 2.17349C36.0944 0.901202 34.188 0.265057 31.6461 0.053009C31.6461 0.053009 31.5402 0.053009 31.4343 0.053009C28.7865 0.265057 26.986 0.901202 26.0328 2.17349C25.6092 2.59759 25.3973 3.12771 25.2914 3.76385C18.619 6.30843 14.1707 12.6699 14.1707 19.9855C12.688 20.4096 11.6289 21.7879 11.6289 23.4843C11.6289 25.1807 13.2175 27.0892 15.2299 27.0892C16.1831 32.1783 19.4663 36.3133 23.8087 38.6458C18.8308 39.9181 14.2767 42.3566 10.4638 45.7494C4.74463 50.9446 1.14365 58.0482 0.296356 65.6819C0.296356 66.106 0.296356 66.5301 0.61409 66.7422C0.931824 67.0602 1.24956 67.1663 1.6732 67.1663H47.2151C47.7446 68.3325 48.6978 69.3928 49.9688 69.9229L50.922 70.347L45.7323 81.4795C45.4146 82.1157 45.5205 82.7518 45.9441 83.2819C46.3678 83.812 47.0033 84.0241 47.6387 83.9181L52.087 83.1759L54.3111 87.0988C54.6289 87.6289 55.1584 87.947 55.7939 87.947C56.4294 87.947 57.0648 87.5229 57.2767 86.8867L62.0427 76.6024L64.1609 75.9663C64.6904 75.8602 65.1141 75.8602 65.6437 75.9663L67.7619 76.6024L72.5279 86.8867C72.8456 87.5229 73.3752 87.841 74.0106 87.947C74.6461 87.947 75.1757 87.6289 75.4934 87.0988L77.7175 83.1759L82.1658 83.9181C82.8013 84.0241 83.4368 83.812 83.8604 83.2819C84.284 82.7518 84.39 82.0096 84.0722 81.4795L78.8826 70.347L79.8358 69.9229C82.0599 68.9687 83.3308 66.7422 83.119 64.3036L82.8013 61.3349C82.8013 60.8048 82.8013 60.3807 83.0131 59.8506L84.39 57.2H85.1313ZM25.3973 6.83855L26.2446 13.5181C26.2446 14.2602 27.0919 14.7904 27.8333 14.7904C28.5747 14.7904 29.1042 13.9422 29.1042 13.2L28.0451 4.82409C28.0451 4.4 28.0451 4.18795 28.257 4.08192C28.6806 3.5518 29.9515 3.12771 31.5402 3.02168C33.1289 3.12771 34.3998 3.5518 34.8235 4.08192C34.9294 4.18795 35.0353 4.4 35.0353 4.82409L33.9762 13.2C33.9762 13.9422 34.3998 14.6843 35.2471 14.7904C35.2471 14.7904 35.353 14.7904 35.4589 14.7904C36.2003 14.7904 36.7299 14.2602 36.8358 13.5181L37.6831 6.83855C42.7668 9.17108 46.0501 14.1542 46.156 19.8795H41.284V12.2458C41.284 11.5036 40.6486 10.8675 39.9072 10.8675C39.1658 10.8675 38.5304 11.5036 38.5304 12.2458V19.8795H24.8678V12.2458C24.8678 11.5036 24.2323 10.8675 23.4909 10.8675C22.7496 10.8675 22.1141 11.5036 22.1141 12.2458V19.8795H17.2422C17.2422 14.1542 20.6313 9.17108 25.7151 6.83855H25.3973ZM47.8505 22.6361C48.2742 22.6361 48.5919 22.9542 48.5919 23.3783C48.5919 23.8024 48.2742 24.1205 47.8505 24.1205H15.2299C14.8062 24.1205 14.4885 23.8024 14.4885 23.3783C14.4885 22.9542 14.8062 22.6361 15.2299 22.6361M18.1954 27.0892H44.885C43.4023 33.2386 38.0008 37.6916 31.5402 37.6916C25.0796 37.6916 19.6781 33.2386 18.1954 27.0892ZM31.5402 40.4482C38.2126 40.4482 44.6732 42.7807 49.757 47.0217V47.4458C49.5451 47.9759 49.3333 48.4 48.9097 48.7181L46.6855 50.7325C44.885 52.4289 44.4614 54.9735 45.5205 57.094L46.8973 59.7446C47.1092 60.2747 47.2151 60.6988 47.1092 61.2289L46.7914 64.1976H3.36779C5.59192 50.4145 17.454 40.2361 31.5402 40.2361V40.4482ZM55.8998 83.9181L54.2052 80.9494C53.8875 80.4193 53.3579 80.2072 52.7225 80.3132L49.3333 80.9494L53.5698 71.7253C53.6757 71.8313 53.7816 72.0434 53.8875 72.1494L55.5821 74.694C56.4294 75.9663 57.7003 76.8145 59.0771 77.0265L55.8998 83.9181ZM77.9294 80.3132C77.2939 80.3132 76.7643 80.5253 76.4466 80.9494L74.752 83.9181L71.5747 77.0265C72.9515 76.8145 74.2225 75.9663 75.0698 74.694L76.7643 72.1494C76.8703 71.9373 76.9762 71.8313 77.0821 71.7253L81.3185 80.9494L77.9294 80.3132ZM82.5895 55.9277L81.2126 58.5783C80.6831 59.5325 80.5771 60.5928 80.6831 61.653L81.0008 64.6217C81.1067 65.788 80.5771 66.8482 79.4121 67.2723L76.6584 68.4386C75.5993 68.8626 74.8579 69.4988 74.2225 70.453L72.5279 72.9976C71.8924 73.9518 70.7274 74.3759 69.6683 74.0578L66.8087 73.2096C65.7496 72.8916 64.6904 72.8916 63.6313 73.2096L60.7717 74.0578C59.6067 74.3759 58.5476 74.0578 57.9121 72.9976L56.2175 70.453C55.5821 69.4988 54.8407 68.8626 53.7816 68.4386L51.0279 67.2723C49.9688 66.8482 49.3333 65.788 49.4392 64.6217L49.757 61.653C49.8629 60.5928 49.757 59.5325 49.2274 58.5783L47.8505 55.9277C47.321 54.8675 47.5328 53.7012 48.3801 52.853L50.6042 50.8386C51.4515 50.0964 51.8752 49.2482 52.1929 48.0819L52.8284 45.1133C53.1461 43.947 53.9934 43.2048 55.1584 43.0988L58.1239 42.8867C59.1831 42.8867 60.1363 42.4627 61.0895 41.8265L63.5254 40.0241C63.9491 39.706 64.5845 39.494 65.1141 39.494C65.6437 39.494 66.1732 39.706 66.7028 40.0241L69.1387 41.8265C69.986 42.4627 70.9392 42.8867 72.1042 42.8867L75.0698 43.0988C76.2348 43.0988 77.188 43.947 77.3998 45.1133L78.0353 48.0819C78.2471 49.1422 78.7767 49.9904 79.6239 50.8386L81.8481 52.853C82.6954 53.7012 82.9072 54.8675 82.3776 55.9277H82.5895ZM78.2471 53.9133L76.8702 53.3831C76.6584 52.641 76.3407 51.8988 76.023 51.2626L76.6584 49.8843C76.8703 49.3542 76.7643 48.7181 76.3407 48.294L74.0106 45.9614C73.587 45.5373 72.9515 45.4313 72.422 45.6434L71.0451 46.2795C70.4097 45.9614 69.6683 45.6434 68.9269 45.4313L68.3973 44.053C68.1855 43.5229 67.656 43.0988 67.1264 43.0988H63.7372C63.1018 43.0988 62.6781 43.4169 62.4663 44.053L61.9368 45.4313C61.1954 45.6434 60.454 45.9614 59.8185 46.2795L58.4417 45.6434C57.9121 45.4313 57.2767 45.5373 56.853 45.9614L54.523 48.294C54.0993 48.7181 53.9934 49.3542 54.2052 49.8843L54.8407 51.2626C54.523 51.8988 54.2052 52.641 53.9934 53.3831L52.6166 53.9133C52.087 54.1253 51.6634 54.6554 51.6634 55.1855V58.5783C51.6634 59.2145 51.9811 59.6386 52.6166 59.8506L53.9934 60.3807C54.2052 61.1229 54.523 61.8651 54.8407 62.5012L54.2052 63.8795C53.9934 64.4096 54.0993 65.0458 54.523 65.4699L56.853 67.8024C57.2767 68.2265 57.9121 68.3325 58.4417 68.1205L59.8185 67.4843C60.454 67.8024 61.1954 68.1205 61.9368 68.3325L62.4663 69.7108C62.6781 70.241 63.2077 70.6651 63.7372 70.6651H67.1264C67.7619 70.6651 68.1855 70.347 68.3973 69.7108L68.9269 68.3325C69.6683 68.1205 70.4097 67.8024 71.0451 67.4843L72.422 68.1205C72.9515 68.3325 73.587 68.2265 74.0106 67.8024L76.3407 65.4699C76.7643 65.0458 76.8703 64.4096 76.6584 63.8795L76.023 62.5012C76.3407 61.8651 76.6584 61.1229 76.8702 60.3807L78.2471 59.8506C78.7767 59.6386 79.2003 59.1084 79.2003 58.5783V55.1855C79.2003 54.5494 78.8826 54.1253 78.2471 53.9133ZM76.3407 57.6241L75.1757 58.0482C74.752 58.2602 74.4343 58.5783 74.3284 59.0024C74.1166 59.9566 73.6929 60.9108 73.1634 61.653C72.9515 62.0771 72.8456 62.5012 73.1634 62.9253L73.6929 64.0916L72.7397 65.0458L71.5747 64.5157C71.151 64.3036 70.6215 64.4096 70.3037 64.5157C69.4565 65.0458 68.6092 65.3639 67.656 65.6819C67.2323 65.788 66.8087 66.106 66.7028 66.5301L66.2791 67.6964H64.9023L64.4786 66.5301C64.2668 66.106 63.9491 65.788 63.5254 65.6819C62.5722 65.4699 61.619 65.0458 60.8776 64.5157C60.454 64.3036 60.0304 64.1976 59.6067 64.5157L58.4417 65.0458L57.4885 64.0916L58.018 62.9253C58.2299 62.5012 58.1239 61.9711 58.018 61.653C57.4885 60.8048 57.1707 59.9566 56.853 59.0024C56.7471 58.5783 56.4294 58.1542 56.0057 58.0482L54.8407 57.6241V56.2458L56.0057 55.8217C56.4294 55.6096 56.7471 55.2916 56.853 54.8675C57.0648 53.9133 57.4885 52.959 58.018 52.2169C58.2299 51.7928 58.3358 51.3687 58.018 50.9446L57.4885 49.7783L58.4417 48.8241L59.6067 49.3542C60.0304 49.5663 60.5599 49.4602 60.8776 49.3542C61.7249 48.8241 62.5722 48.506 63.5254 48.188C63.9491 48.0819 64.3727 47.7639 64.4786 47.3398L64.9023 46.1735H66.2791L66.7028 47.3398C66.9146 47.7639 67.2323 48.0819 67.656 48.188C68.6092 48.4 69.5624 48.8241 70.3037 49.3542C70.7274 49.5663 71.151 49.6723 71.5747 49.3542L72.7397 48.8241L73.6929 49.7783L73.1634 50.9446C72.9515 51.3687 73.0574 51.8988 73.1634 52.2169C73.6929 53.0651 74.0106 53.9133 74.3284 54.8675C74.4343 55.2916 74.752 55.7157 75.1757 55.8217L76.3407 56.2458V57.6241ZM65.3259 49.6723C61.3013 49.6723 58.018 52.959 58.018 56.988C58.018 61.0169 61.3013 64.3036 65.3259 64.3036C69.3506 64.3036 72.6338 61.0169 72.6338 56.988C72.6338 52.959 69.3506 49.6723 65.3259 49.6723ZM65.3259 61.441C62.89 61.441 60.8776 59.4265 60.8776 56.988C60.8776 54.5494 62.89 52.5349 65.3259 52.5349C67.7619 52.5349 69.7742 54.5494 69.7742 56.988C69.7742 59.4265 67.7619 61.441 65.3259 61.441Z" fill="#525665"></path><path d="M47.8505 22.6361C48.2742 22.6361 48.5919 22.9542 48.5919 23.3783C48.5919 23.8024 48.2742 24.1205 47.8505 24.1205H15.2299C14.8062 24.1205 14.4885 23.8024 14.4885 23.3783C14.4885 22.9542 14.8062 22.6361 15.2299 22.6361M85.1313 57.2C86.1904 55.0795 85.7668 52.4289 83.9663 50.8386L81.7422 48.8241C81.3185 48.4 81.1067 48.0819 81.0008 47.5518L80.3653 44.5831C79.8358 42.2506 77.8234 40.5542 75.3875 40.4482L72.422 40.2361C71.8924 40.2361 71.4688 40.0241 71.0451 39.706L68.6092 37.9036C66.7028 36.4193 64.055 36.4193 62.1486 37.9036L59.7126 39.706C59.289 40.0241 58.8653 40.2361 58.3358 40.2361L55.3703 40.4482C53.1461 40.5542 51.2397 42.0386 50.6042 44.053C47.2151 41.5084 43.4023 39.6 39.2717 38.6458C43.6141 36.3133 46.8973 32.1783 47.8505 27.0892C49.8629 27.0892 51.4515 25.4988 51.4515 23.4843C51.4515 21.4699 50.3924 20.5157 48.9097 19.9855C48.9097 12.7759 44.4614 6.41445 37.789 3.76385C37.6831 3.23373 37.4712 2.59759 37.0476 2.17349C36.0944 0.901202 34.188 0.265057 31.6461 0.053009C31.6461 0.053009 31.5402 0.053009 31.4343 0.053009C28.7865 0.265057 26.986 0.901202 26.0328 2.17349C25.6092 2.59759 25.3973 3.12771 25.2914 3.76385C18.619 6.30843 14.1707 12.6699 14.1707 19.9855C12.688 20.4096 11.6289 21.7879 11.6289 23.4843C11.6289 25.1807 13.2175 27.0892 15.2299 27.0892C16.1831 32.1783 19.4663 36.3133 23.8087 38.6458C18.8308 39.9181 14.2767 42.3566 10.4638 45.7494C4.74463 50.9446 1.14365 58.0482 0.296356 65.6819C0.296356 66.106 0.296356 66.5301 0.61409 66.7422C0.931824 67.0602 1.24956 67.1663 1.6732 67.1663H47.2151C47.7446 68.3325 48.6978 69.3928 49.9688 69.9229L50.922 70.347L45.7323 81.4795C45.4146 82.1157 45.5205 82.7518 45.9441 83.2819C46.3678 83.812 47.0033 84.0241 47.6387 83.9181L52.087 83.1759L54.3111 87.0988C54.6289 87.6289 55.1584 87.947 55.7939 87.947C56.4294 87.947 57.0648 87.5229 57.2767 86.8867L62.0427 76.6024L64.1609 75.9663C64.6904 75.8602 65.1141 75.8602 65.6437 75.9663L67.7619 76.6024L72.5279 86.8867C72.8456 87.5229 73.3752 87.841 74.0106 87.947C74.6461 87.947 75.1757 87.6289 75.4934 87.0988L77.7175 83.1759L82.1658 83.9181C82.8013 84.0241 83.4368 83.812 83.8604 83.2819C84.284 82.7518 84.39 82.0096 84.0722 81.4795L78.8826 70.347L79.8358 69.9229C82.0599 68.9687 83.3308 66.7422 83.119 64.3036L82.8013 61.3349C82.8013 60.8048 82.8013 60.3807 83.0131 59.8506L84.39 57.2H85.1313ZM25.3973 6.83855L26.2446 13.5181C26.2446 14.2602 27.0919 14.7904 27.8333 14.7904C28.5747 14.7904 29.1042 13.9422 29.1042 13.2L28.0451 4.82409C28.0451 4.4 28.0451 4.18795 28.257 4.08192C28.6806 3.5518 29.9515 3.12771 31.5402 3.02168C33.1289 3.12771 34.3998 3.5518 34.8235 4.08192C34.9294 4.18795 35.0353 4.4 35.0353 4.82409L33.9762 13.2C33.9762 13.9422 34.3998 14.6843 35.2471 14.7904C35.2471 14.7904 35.353 14.7904 35.4589 14.7904C36.2003 14.7904 36.7299 14.2602 36.8358 13.5181L37.6831 6.83855C42.7668 9.17108 46.0501 14.1542 46.156 19.8795H41.284V12.2458C41.284 11.5036 40.6486 10.8675 39.9072 10.8675C39.1658 10.8675 38.5304 11.5036 38.5304 12.2458V19.8795H24.8678V12.2458C24.8678 11.5036 24.2323 10.8675 23.4909 10.8675C22.7496 10.8675 22.1141 11.5036 22.1141 12.2458V19.8795H17.2422C17.2422 14.1542 20.6313 9.17108 25.7151 6.83855H25.3973ZM18.1954 27.0892H44.885C43.4023 33.2386 38.0008 37.6916 31.5402 37.6916C25.0796 37.6916 19.6781 33.2386 18.1954 27.0892ZM31.5402 40.4482C38.2126 40.4482 44.6732 42.7807 49.757 47.0217V47.4458C49.5451 47.9759 49.3333 48.4 48.9097 48.7181L46.6855 50.7325C44.885 52.4289 44.4614 54.9735 45.5205 57.094L46.8973 59.7446C47.1092 60.2747 47.2151 60.6988 47.1092 61.2289L46.7914 64.1976H3.36779C5.59192 50.4145 17.454 40.2361 31.5402 40.2361V40.4482ZM55.8998 83.9181L54.2052 80.9494C53.8875 80.4193 53.3579 80.2072 52.7225 80.3132L49.3333 80.9494L53.5698 71.7253C53.6757 71.8313 53.7816 72.0434 53.8875 72.1494L55.5821 74.694C56.4294 75.9663 57.7003 76.8145 59.0771 77.0265L55.8998 83.9181ZM77.9294 80.3132C77.2939 80.3132 76.7643 80.5253 76.4466 80.9494L74.752 83.9181L71.5747 77.0265C72.9515 76.8145 74.2225 75.9663 75.0698 74.694L76.7643 72.1494C76.8703 71.9373 76.9762 71.8313 77.0821 71.7253L81.3185 80.9494L77.9294 80.3132ZM82.5895 55.9277L81.2126 58.5783C80.6831 59.5325 80.5771 60.5928 80.6831 61.653L81.0008 64.6217C81.1067 65.788 80.5771 66.8482 79.4121 67.2723L76.6584 68.4386C75.5993 68.8626 74.8579 69.4988 74.2225 70.453L72.5279 72.9976C71.8924 73.9518 70.7274 74.3759 69.6683 74.0578L66.8087 73.2096C65.7496 72.8916 64.6904 72.8916 63.6313 73.2096L60.7717 74.0578C59.6067 74.3759 58.5476 74.0578 57.9121 72.9976L56.2175 70.453C55.5821 69.4988 54.8407 68.8626 53.7816 68.4386L51.0279 67.2723C49.9688 66.8482 49.3333 65.788 49.4392 64.6217L49.757 61.653C49.8629 60.5928 49.757 59.5325 49.2274 58.5783L47.8505 55.9277C47.321 54.8675 47.5328 53.7012 48.3801 52.853L50.6042 50.8386C51.4515 50.0964 51.8752 49.2482 52.1929 48.0819L52.8284 45.1133C53.1461 43.947 53.9934 43.2048 55.1584 43.0988L58.1239 42.8867C59.1831 42.8867 60.1363 42.4627 61.0895 41.8265L63.5254 40.0241C63.9491 39.706 64.5845 39.494 65.1141 39.494C65.6437 39.494 66.1732 39.706 66.7028 40.0241L69.1387 41.8265C69.986 42.4627 70.9392 42.8867 72.1042 42.8867L75.0698 43.0988C76.2348 43.0988 77.188 43.947 77.3998 45.1133L78.0353 48.0819C78.2471 49.1422 78.7767 49.9904 79.6239 50.8386L81.8481 52.853C82.6954 53.7012 82.9072 54.8675 82.3776 55.9277H82.5895ZM78.2471 53.9133L76.8702 53.3831C76.6584 52.641 76.3407 51.8988 76.023 51.2626L76.6584 49.8843C76.8703 49.3542 76.7643 48.7181 76.3407 48.294L74.0106 45.9614C73.587 45.5373 72.9515 45.4313 72.422 45.6434L71.0451 46.2795C70.4097 45.9614 69.6683 45.6434 68.9269 45.4313L68.3973 44.053C68.1855 43.5229 67.656 43.0988 67.1264 43.0988H63.7372C63.1018 43.0988 62.6781 43.4169 62.4663 44.053L61.9368 45.4313C61.1954 45.6434 60.454 45.9614 59.8185 46.2795L58.4417 45.6434C57.9121 45.4313 57.2767 45.5373 56.853 45.9614L54.523 48.294C54.0993 48.7181 53.9934 49.3542 54.2052 49.8843L54.8407 51.2626C54.523 51.8988 54.2052 52.641 53.9934 53.3831L52.6166 53.9133C52.087 54.1253 51.6634 54.6554 51.6634 55.1855V58.5783C51.6634 59.2145 51.9811 59.6386 52.6166 59.8506L53.9934 60.3807C54.2052 61.1229 54.523 61.8651 54.8407 62.5012L54.2052 63.8795C53.9934 64.4096 54.0993 65.0458 54.523 65.4699L56.853 67.8024C57.2767 68.2265 57.9121 68.3325 58.4417 68.1205L59.8185 67.4843C60.454 67.8024 61.1954 68.1205 61.9368 68.3325L62.4663 69.7108C62.6781 70.241 63.2077 70.6651 63.7372 70.6651H67.1264C67.7619 70.6651 68.1855 70.347 68.3973 69.7108L68.9269 68.3325C69.6683 68.1205 70.4097 67.8024 71.0451 67.4843L72.422 68.1205C72.9515 68.3325 73.587 68.2265 74.0106 67.8024L76.3407 65.4699C76.7643 65.0458 76.8703 64.4096 76.6584 63.8795L76.023 62.5012C76.3407 61.8651 76.6584 61.1229 76.8702 60.3807L78.2471 59.8506C78.7767 59.6386 79.2003 59.1084 79.2003 58.5783V55.1855C79.2003 54.5494 78.8826 54.1253 78.2471 53.9133ZM76.3407 57.6241L75.1757 58.0482C74.752 58.2602 74.4343 58.5783 74.3284 59.0024C74.1166 59.9566 73.6929 60.9108 73.1634 61.653C72.9515 62.0771 72.8456 62.5012 73.1634 62.9253L73.6929 64.0916L72.7397 65.0458L71.5747 64.5157C71.151 64.3036 70.6215 64.4096 70.3037 64.5157C69.4565 65.0458 68.6092 65.3639 67.656 65.6819C67.2323 65.788 66.8087 66.106 66.7028 66.5301L66.2791 67.6964H64.9023L64.4786 66.5301C64.2668 66.106 63.9491 65.788 63.5254 65.6819C62.5722 65.4699 61.619 65.0458 60.8776 64.5157C60.454 64.3036 60.0304 64.1976 59.6067 64.5157L58.4417 65.0458L57.4885 64.0916L58.018 62.9253C58.2299 62.5012 58.1239 61.9711 58.018 61.653C57.4885 60.8048 57.1707 59.9566 56.853 59.0024C56.7471 58.5783 56.4294 58.1542 56.0057 58.0482L54.8407 57.6241V56.2458L56.0057 55.8217C56.4294 55.6096 56.7471 55.2916 56.853 54.8675C57.0648 53.9133 57.4885 52.959 58.018 52.2169C58.2299 51.7928 58.3358 51.3687 58.018 50.9446L57.4885 49.7783L58.4417 48.8241L59.6067 49.3542C60.0304 49.5663 60.5599 49.4602 60.8776 49.3542C61.7249 48.8241 62.5722 48.506 63.5254 48.188C63.9491 48.0819 64.3727 47.7639 64.4786 47.3398L64.9023 46.1735H66.2791L66.7028 47.3398C66.9146 47.7639 67.2323 48.0819 67.656 48.188C68.6092 48.4 69.5624 48.8241 70.3037 49.3542C70.7274 49.5663 71.151 49.6723 71.5747 49.3542L72.7397 48.8241L73.6929 49.7783L73.1634 50.9446C72.9515 51.3687 73.0574 51.8988 73.1634 52.2169C73.6929 53.0651 74.0106 53.9133 74.3284 54.8675C74.4343 55.2916 74.752 55.7157 75.1757 55.8217L76.3407 56.2458V57.6241ZM65.3259 49.6723C61.3013 49.6723 58.018 52.959 58.018 56.988C58.018 61.0169 61.3013 64.3036 65.3259 64.3036C69.3506 64.3036 72.6338 61.0169 72.6338 56.988C72.6338 52.959 69.3506 49.6723 65.3259 49.6723ZM65.3259 61.441C62.89 61.441 60.8776 59.4265 60.8776 56.988C60.8776 54.5494 62.89 52.5349 65.3259 52.5349C67.7619 52.5349 69.7742 54.5494 69.7742 56.988C69.7742 59.4265 67.7619 61.441 65.3259 61.441Z" stroke="white" stroke-width="0.5" stroke-miterlimit="10"></path></svg> 